<?xml version="1.0" encoding="UTF-8"?>
<svg xmlns="http://www.w3.org/2000/svg" width="215" height="94" viewBox="0 0 215 94" fill="none">
  <rect y="21.3799" width="15.3628" height="51.4939" rx="7.6814" fill="#2174C9"></rect>
  <rect x="36.4141" y="21.2998" width="15.3628" height="51.6547" rx="7.6814" fill="#24CEC8"></rect>
  <rect x="18.207" y="10" width="15.3628" height="24.2131" rx="7.6814" fill="#C7D710"></rect>
  <rect x="18.207" y="59.7871" width="15.3628" height="24.2131" rx="7.6814" fill="#C7D710"></rect>
  <circle cx="25.8884" cy="46.9841" r="7.6814" fill="#FA8937"></circle>
  <ellipse cx="44.5093" cy="37.4413" rx="3.02492" ry="3.22842" fill="white"></ellipse>
  <ellipse cx="46.6699" cy="45.1086" rx="1.72852" ry="2.01776" fill="white"></ellipse>
  <path d="M65.6933 35.76L66.0893 33.96H71.9393L72.3533 35.76H65.6933ZM68.9873 29.964L67.0073 34.59L66.9713 35.058L65.2253 39H62.8313L68.9873 25.698L75.1433 39H72.7493L71.0393 35.166L70.9853 34.644L68.9873 29.964ZM76.6091 26.4H78.7691V39H76.6091V26.4ZM80.6771 39H77.9231V37.002H80.6231C81.2471 37.002 81.8231 36.912 82.3511 36.732C82.8791 36.552 83.3351 36.282 83.7191 35.922C84.1151 35.562 84.4211 35.112 84.6371 34.572C84.8651 34.032 84.9791 33.408 84.9791 32.7C84.9791 31.992 84.8651 31.368 84.6371 30.828C84.4211 30.288 84.1151 29.838 83.7191 29.478C83.3351 29.118 82.8791 28.848 82.3511 28.668C81.8231 28.488 81.2471 28.398 80.6231 28.398H77.9231V26.4H80.6771C81.9611 26.4 83.0891 26.664 84.0611 27.192C85.0331 27.708 85.7891 28.44 86.3291 29.388C86.8811 30.324 87.1571 31.428 87.1571 32.7C87.1571 33.972 86.8811 35.082 86.3291 36.03C85.7891 36.966 85.0331 37.698 84.0611 38.226C83.0891 38.742 81.9611 39 80.6771 39ZM89.2302 26.4H91.3902V39H89.2302V26.4ZM93.2982 39H90.5442V37.002H93.2442C93.8682 37.002 94.4442 36.912 94.9722 36.732C95.5002 36.552 95.9562 36.282 96.3402 35.922C96.7362 35.562 97.0422 35.112 97.2582 34.572C97.4862 34.032 97.6002 33.408 97.6002 32.7C97.6002 31.992 97.4862 31.368 97.2582 30.828C97.0422 30.288 96.7362 29.838 96.3402 29.478C95.9562 29.118 95.5002 28.848 94.9722 28.668C94.4442 28.488 93.8682 28.398 93.2442 28.398H90.5442V26.4H93.2982C94.5822 26.4 95.7102 26.664 96.6822 27.192C97.6542 27.708 98.4102 28.44 98.9502 29.388C99.5022 30.324 99.7782 31.428 99.7782 32.7C99.7782 33.972 99.5022 35.082 98.9502 36.03C98.4102 36.966 97.6542 37.698 96.6822 38.226C95.7102 38.742 94.5822 39 93.2982 39ZM101.851 26.4H103.993V39H101.851V26.4ZM107.636 34.95C107.912 35.43 108.206 35.856 108.518 36.228C108.842 36.588 109.196 36.87 109.58 37.074C109.964 37.266 110.396 37.362 110.876 37.362C111.452 37.362 111.92 37.206 112.28 36.894C112.64 36.582 112.82 36.18 112.82 35.688C112.82 35.22 112.706 34.848 112.478 34.572C112.25 34.284 111.932 34.044 111.524 33.852C111.128 33.648 110.666 33.45 110.138 33.258C109.826 33.15 109.478 33.006 109.094 32.826C108.71 32.634 108.344 32.4 107.996 32.124C107.648 31.836 107.36 31.488 107.132 31.08C106.904 30.66 106.79 30.156 106.79 29.568C106.79 28.896 106.964 28.308 107.312 27.804C107.66 27.288 108.128 26.892 108.716 26.616C109.316 26.328 109.994 26.184 110.75 26.184C111.494 26.184 112.142 26.316 112.694 26.58C113.246 26.844 113.708 27.18 114.08 27.588C114.464 27.996 114.764 28.422 114.98 28.866L113.252 29.838C113.096 29.526 112.898 29.238 112.658 28.974C112.418 28.698 112.136 28.482 111.812 28.326C111.5 28.158 111.134 28.074 110.714 28.074C110.126 28.074 109.694 28.212 109.418 28.488C109.142 28.752 109.004 29.064 109.004 29.424C109.004 29.748 109.1 30.042 109.292 30.306C109.496 30.558 109.808 30.798 110.228 31.026C110.648 31.254 111.194 31.488 111.866 31.728C112.238 31.86 112.61 32.028 112.982 32.232C113.366 32.436 113.714 32.694 114.026 33.006C114.338 33.306 114.584 33.66 114.764 34.068C114.956 34.476 115.052 34.956 115.052 35.508C115.052 36.096 114.938 36.624 114.71 37.092C114.482 37.56 114.17 37.956 113.774 38.28C113.378 38.592 112.928 38.832 112.424 39C111.932 39.18 111.416 39.27 110.876 39.27C110.132 39.27 109.442 39.126 108.806 38.838C108.182 38.538 107.636 38.142 107.168 37.65C106.7 37.158 106.328 36.624 106.052 36.048L107.636 34.95Z" fill="#3E4549"></path>
  <path d="M65.0093 50.95C65.2853 51.43 65.5793 51.856 65.8913 52.228C66.2153 52.588 66.5693 52.87 66.9533 53.074C67.3373 53.266 67.7693 53.362 68.2493 53.362C68.8253 53.362 69.2933 53.206 69.6533 52.894C70.0133 52.582 70.1933 52.18 70.1933 51.688C70.1933 51.22 70.0793 50.848 69.8513 50.572C69.6233 50.284 69.3053 50.044 68.8973 49.852C68.5013 49.648 68.0393 49.45 67.5113 49.258C67.1993 49.15 66.8513 49.006 66.4673 48.826C66.0833 48.634 65.7173 48.4 65.3693 48.124C65.0213 47.836 64.7333 47.488 64.5053 47.08C64.2773 46.66 64.1633 46.156 64.1633 45.568C64.1633 44.896 64.3373 44.308 64.6853 43.804C65.0333 43.288 65.5013 42.892 66.0893 42.616C66.6893 42.328 67.3673 42.184 68.1233 42.184C68.8673 42.184 69.5153 42.316 70.0673 42.58C70.6193 42.844 71.0813 43.18 71.4533 43.588C71.8373 43.996 72.1373 44.422 72.3533 44.866L70.6253 45.838C70.4693 45.526 70.2713 45.238 70.0313 44.974C69.7913 44.698 69.5093 44.482 69.1853 44.326C68.8733 44.158 68.5073 44.074 68.0873 44.074C67.4993 44.074 67.0673 44.212 66.7913 44.488C66.5153 44.752 66.3773 45.064 66.3773 45.424C66.3773 45.748 66.4733 46.042 66.6653 46.306C66.8693 46.558 67.1813 46.798 67.6013 47.026C68.0213 47.254 68.5673 47.488 69.2393 47.728C69.6113 47.86 69.9833 48.028 70.3553 48.232C70.7393 48.436 71.0873 48.694 71.3993 49.006C71.7113 49.306 71.9573 49.66 72.1373 50.068C72.3293 50.476 72.4253 50.956 72.4253 51.508C72.4253 52.096 72.3113 52.624 72.0833 53.092C71.8553 53.56 71.5433 53.956 71.1473 54.28C70.7513 54.592 70.3013 54.832 69.7973 55C69.3053 55.18 68.7893 55.27 68.2493 55.27C67.5053 55.27 66.8153 55.126 66.1793 54.838C65.5553 54.538 65.0093 54.142 64.5413 53.65C64.0733 53.158 63.7013 52.624 63.4253 52.048L65.0093 50.95ZM76.1352 48.7C76.1352 49.564 76.3152 50.338 76.6752 51.022C77.0472 51.694 77.5572 52.222 78.2052 52.606C78.8532 52.99 79.5912 53.182 80.4192 53.182C81.2592 53.182 81.9972 52.99 82.6332 52.606C83.2812 52.222 83.7852 51.694 84.1452 51.022C84.5172 50.338 84.7032 49.564 84.7032 48.7C84.7032 47.836 84.5232 47.068 84.1632 46.396C83.8032 45.712 83.2992 45.178 82.6512 44.794C82.0152 44.41 81.2712 44.218 80.4192 44.218C79.5912 44.218 78.8532 44.41 78.2052 44.794C77.5572 45.178 77.0472 45.712 76.6752 46.396C76.3152 47.068 76.1352 47.836 76.1352 48.7ZM73.8852 48.7C73.8852 47.752 74.0472 46.882 74.3712 46.09C74.6952 45.298 75.1512 44.614 75.7392 44.038C76.3392 43.45 77.0352 42.994 77.8272 42.67C78.6312 42.346 79.4952 42.184 80.4192 42.184C81.3672 42.184 82.2372 42.346 83.0292 42.67C83.8212 42.994 84.5112 43.45 85.0992 44.038C85.6992 44.614 86.1612 45.298 86.4852 46.09C86.8092 46.882 86.9712 47.752 86.9712 48.7C86.9712 49.636 86.8092 50.506 86.4852 51.31C86.1612 52.114 85.7052 52.81 85.1172 53.398C84.5292 53.986 83.8332 54.448 83.0292 54.784C82.2372 55.108 81.3672 55.27 80.4192 55.27C79.4832 55.27 78.6132 55.108 77.8092 54.784C77.0052 54.448 76.3092 53.986 75.7212 53.398C75.1452 52.81 74.6952 52.114 74.3712 51.31C74.0472 50.506 73.8852 49.636 73.8852 48.7ZM90.3508 44.308V42.4H95.9848V44.308H90.3508ZM90.3508 49.312V47.458H95.8048V49.312H90.3508ZM89.0368 42.4H91.1248V55H89.0368V42.4ZM96.6186 44.362V42.4H105.403V44.362H102.073V55H99.9306V44.362H96.6186ZM118.888 50.842L121.84 42.4H124.306L119.158 55.666L115.27 46.756L111.382 55.666L106.234 42.4H108.7L111.688 50.842L115.27 41.77L118.888 50.842ZM139.072 48.988H141.376L145.642 55H143.086L139.072 48.988ZM136.48 42.4H138.604V55H136.48V42.4ZM137.74 44.236V42.4H140.368C141.28 42.4 142.072 42.562 142.744 42.886C143.428 43.21 143.956 43.666 144.328 44.254C144.7 44.83 144.886 45.514 144.886 46.306C144.886 47.098 144.7 47.788 144.328 48.376C143.956 48.964 143.428 49.42 142.744 49.744C142.072 50.068 141.28 50.23 140.368 50.23H137.74V48.484H140.278C140.758 48.484 141.178 48.4 141.538 48.232C141.91 48.064 142.198 47.824 142.402 47.512C142.606 47.188 142.708 46.804 142.708 46.36C142.708 45.904 142.606 45.52 142.402 45.208C142.198 44.896 141.91 44.656 141.538 44.488C141.178 44.32 140.758 44.236 140.278 44.236H137.74ZM148.499 55V53.128H154.853V55H148.499ZM148.499 44.272V42.4H154.853V44.272H148.499ZM148.499 49.168V47.332H154.493V49.168H148.499ZM147.185 42.4H149.273V55H147.185V42.4Z" fill="#3E4549"></path>
  <path d="M125.564 51.76L125.96 49.96H131.81L132.224 51.76H125.564ZM128.858 45.964L126.878 50.59L126.842 51.058L125.096 55H122.702L128.858 41.698L135.014 55H132.62L130.91 51.166L130.856 50.644L128.858 45.964Z" fill="#3E4549"></path>
  <path opacity="0.8" d="M63.8453 72.576C63.9813 72.928 64.1453 73.248 64.3373 73.536C64.5373 73.824 64.7813 74.056 65.0693 74.232C65.3573 74.4 65.7013 74.484 66.1013 74.484C66.6453 74.484 67.0693 74.336 67.3733 74.04C67.6853 73.736 67.8413 73.352 67.8413 72.888C67.8413 72.48 67.7493 72.152 67.5653 71.904C67.3813 71.656 67.1413 71.456 66.8453 71.304C66.5573 71.144 66.2533 71.004 65.9333 70.884C65.6933 70.796 65.4413 70.692 65.1773 70.572C64.9213 70.444 64.6813 70.292 64.4573 70.116C64.2333 69.932 64.0493 69.712 63.9053 69.456C63.7693 69.2 63.7013 68.892 63.7013 68.532C63.7013 68.132 63.7973 67.78 63.9893 67.476C64.1813 67.164 64.4493 66.924 64.7933 66.756C65.1373 66.58 65.5253 66.492 65.9573 66.492C66.4053 66.492 66.7893 66.576 67.1093 66.744C67.4373 66.912 67.7093 67.124 67.9253 67.38C68.1413 67.636 68.3053 67.9 68.4173 68.172L67.8413 68.496C67.7533 68.28 67.6253 68.068 67.4573 67.86C67.2973 67.652 67.0933 67.48 66.8453 67.344C66.5973 67.2 66.2893 67.128 65.9213 67.128C65.4333 67.128 65.0573 67.256 64.7933 67.512C64.5293 67.76 64.3973 68.072 64.3973 68.448C64.3973 68.76 64.4733 69.028 64.6253 69.252C64.7773 69.476 65.0053 69.68 65.3093 69.864C65.6133 70.04 65.9893 70.208 66.4373 70.368C66.6693 70.456 66.9093 70.564 67.1573 70.692C67.4053 70.82 67.6293 70.98 67.8293 71.172C68.0373 71.364 68.2053 71.596 68.3333 71.868C68.4613 72.132 68.5253 72.448 68.5253 72.816C68.5253 73.16 68.4613 73.472 68.3333 73.752C68.2133 74.032 68.0413 74.276 67.8173 74.484C67.6013 74.684 67.3453 74.84 67.0493 74.952C66.7533 75.056 66.4333 75.108 66.0893 75.108C65.6013 75.108 65.1733 75.008 64.8053 74.808C64.4373 74.608 64.1293 74.34 63.8813 74.004C63.6333 73.668 63.4413 73.304 63.3053 72.912L63.8453 72.576ZM70.4263 75V74.376H74.5903V75H70.4263ZM70.4263 67.224V66.6H74.5903V67.224H70.4263ZM70.4263 70.704V70.08H74.3503V70.704H70.4263ZM70.0783 66.6H70.7383V75H70.0783V66.6ZM75.6485 67.224V66.6H80.7245V67.224H78.5165V75H77.8565V67.224H75.6485ZM81.4258 67.224V66.6H86.5018V67.224H84.2938V75H83.6338V67.224H81.4258ZM87.6559 66.6H88.3159V75H87.6559V66.6ZM96.6889 66.6H97.3489V75.324L90.9649 67.992V75H90.3049V66.276L96.6889 73.632V66.6ZM103.287 71.436V70.812H107.019C107.019 71.38 106.931 71.924 106.755 72.444C106.579 72.956 106.319 73.412 105.975 73.812C105.631 74.212 105.215 74.528 104.727 74.76C104.239 74.992 103.687 75.108 103.071 75.108C102.471 75.108 101.915 75.004 101.403 74.796C100.899 74.58 100.455 74.28 100.071 73.896C99.6955 73.512 99.4035 73.056 99.1955 72.528C98.9875 72 98.8835 71.424 98.8835 70.8C98.8835 70.176 98.9875 69.6 99.1955 69.072C99.4035 68.544 99.6955 68.088 100.071 67.704C100.455 67.32 100.899 67.024 101.403 66.816C101.915 66.6 102.471 66.492 103.071 66.492C103.591 66.492 104.063 66.564 104.487 66.708C104.919 66.852 105.303 67.06 105.639 67.332C105.975 67.596 106.263 67.916 106.503 68.292L106.023 68.712C105.743 68.248 105.351 67.872 104.847 67.584C104.343 67.296 103.751 67.152 103.071 67.152C102.415 67.152 101.823 67.308 101.295 67.62C100.767 67.932 100.347 68.36 100.035 68.904C99.7315 69.448 99.5795 70.08 99.5795 70.8C99.5795 71.512 99.7315 72.144 100.035 72.696C100.347 73.24 100.763 73.668 101.283 73.98C101.811 74.292 102.407 74.448 103.071 74.448C103.543 74.448 103.967 74.368 104.343 74.208C104.719 74.048 105.043 73.828 105.315 73.548C105.595 73.268 105.819 72.948 105.987 72.588C106.155 72.228 106.259 71.844 106.299 71.436H103.287ZM111.379 67.224V66.6H116.455V67.224H114.247V75H113.587V67.224H111.379ZM117.981 70.74V70.116H123.645V70.74H117.981ZM123.201 66.6H123.873V75H123.201V66.6ZM117.633 66.6H118.293V75H117.633V66.6ZM126.243 75V74.376H130.407V75H126.243ZM126.243 67.224V66.6H130.407V67.224H126.243ZM126.243 70.704V70.08H130.167V70.704H126.243ZM125.895 66.6H126.555V75H125.895V66.6ZM135.963 72.576C136.099 72.928 136.263 73.248 136.455 73.536C136.655 73.824 136.899 74.056 137.187 74.232C137.475 74.4 137.819 74.484 138.219 74.484C138.763 74.484 139.187 74.336 139.491 74.04C139.803 73.736 139.959 73.352 139.959 72.888C139.959 72.48 139.867 72.152 139.683 71.904C139.499 71.656 139.259 71.456 138.963 71.304C138.675 71.144 138.371 71.004 138.051 70.884C137.811 70.796 137.559 70.692 137.295 70.572C137.039 70.444 136.799 70.292 136.575 70.116C136.351 69.932 136.167 69.712 136.023 69.456C135.887 69.2 135.819 68.892 135.819 68.532C135.819 68.132 135.915 67.78 136.107 67.476C136.299 67.164 136.567 66.924 136.911 66.756C137.255 66.58 137.643 66.492 138.075 66.492C138.523 66.492 138.907 66.576 139.227 66.744C139.555 66.912 139.827 67.124 140.043 67.38C140.259 67.636 140.423 67.9 140.535 68.172L139.959 68.496C139.871 68.28 139.743 68.068 139.575 67.86C139.415 67.652 139.211 67.48 138.963 67.344C138.715 67.2 138.407 67.128 138.039 67.128C137.551 67.128 137.175 67.256 136.911 67.512C136.647 67.76 136.515 68.072 136.515 68.448C136.515 68.76 136.591 69.028 136.743 69.252C136.895 69.476 137.123 69.68 137.427 69.864C137.731 70.04 138.107 70.208 138.555 70.368C138.787 70.456 139.027 70.564 139.275 70.692C139.523 70.82 139.747 70.98 139.947 71.172C140.155 71.364 140.323 71.596 140.451 71.868C140.579 72.132 140.643 72.448 140.643 72.816C140.643 73.16 140.579 73.472 140.451 73.752C140.331 74.032 140.159 74.276 139.935 74.484C139.719 74.684 139.463 74.84 139.167 74.952C138.871 75.056 138.551 75.108 138.207 75.108C137.719 75.108 137.291 75.008 136.923 74.808C136.555 74.608 136.247 74.34 135.999 74.004C135.751 73.668 135.559 73.304 135.423 72.912L135.963 72.576ZM141.356 67.224V66.6H146.432V67.224H144.224V75H143.564V67.224H141.356ZM147.086 72.18L147.302 71.556H151.178L151.394 72.18H147.086ZM149.222 67.8L147.59 71.772L147.518 71.916L146.258 75H145.514L149.222 66.276L152.93 75H152.186L150.938 71.964L150.878 71.808L149.222 67.8ZM160.427 66.6H161.087V75.324L154.703 67.992V75H154.043V66.276L160.427 73.632V66.6ZM163.102 66.6H163.762V75H163.102V66.6ZM165.382 75H163.462V74.34H165.382C165.902 74.34 166.374 74.256 166.798 74.088C167.23 73.92 167.598 73.684 167.902 73.38C168.206 73.068 168.438 72.696 168.598 72.264C168.766 71.824 168.85 71.336 168.85 70.8C168.85 70.264 168.766 69.78 168.598 69.348C168.438 68.908 168.206 68.536 167.902 68.232C167.598 67.92 167.23 67.68 166.798 67.512C166.374 67.344 165.902 67.26 165.382 67.26H163.462V66.6H165.382C166.198 66.6 166.914 66.776 167.53 67.128C168.154 67.48 168.638 67.972 168.982 68.604C169.334 69.228 169.51 69.96 169.51 70.8C169.51 71.64 169.334 72.376 168.982 73.008C168.638 73.632 168.154 74.12 167.53 74.472C166.914 74.824 166.198 75 165.382 75ZM171.356 72.18L171.572 71.556H175.448L175.664 72.18H171.356ZM173.492 67.8L171.86 71.772L171.788 71.916L170.528 75H169.784L173.492 66.276L177.2 75H176.456L175.208 71.964L175.148 71.808L173.492 67.8ZM179.741 70.992H180.473L183.341 75H182.525L179.741 70.992ZM178.313 66.6H178.973V75H178.313V66.6ZM178.661 67.188V66.6H180.233C180.777 66.6 181.261 66.696 181.685 66.888C182.117 67.08 182.457 67.356 182.705 67.716C182.953 68.076 183.077 68.516 183.077 69.036C183.077 69.548 182.953 69.988 182.705 70.356C182.457 70.724 182.117 71.004 181.685 71.196C181.261 71.38 180.777 71.472 180.233 71.472H178.661V70.884H180.233C180.657 70.884 181.033 70.816 181.361 70.68C181.697 70.536 181.957 70.328 182.141 70.056C182.325 69.776 182.417 69.436 182.417 69.036C182.417 68.636 182.321 68.3 182.129 68.028C181.945 67.756 181.689 67.548 181.361 67.404C181.033 67.26 180.657 67.188 180.233 67.188H178.661ZM184.594 66.6H185.254V75H184.594V66.6ZM186.874 75H184.954V74.34H186.874C187.394 74.34 187.866 74.256 188.29 74.088C188.722 73.92 189.09 73.684 189.394 73.38C189.698 73.068 189.93 72.696 190.09 72.264C190.258 71.824 190.342 71.336 190.342 70.8C190.342 70.264 190.258 69.78 190.09 69.348C189.93 68.908 189.698 68.536 189.394 68.232C189.09 67.92 188.722 67.68 188.29 67.512C187.866 67.344 187.394 67.26 186.874 67.26H184.954V66.6H186.874C187.69 66.6 188.406 66.776 189.022 67.128C189.646 67.48 190.13 67.972 190.474 68.604C190.826 69.228 191.002 69.96 191.002 70.8C191.002 71.64 190.826 72.376 190.474 73.008C190.13 73.632 189.646 74.12 189.022 74.472C188.406 74.824 187.69 75 186.874 75Z" fill="#575A5C"></path>
</svg>
